<svg width="20" height="20" viewBox="0 0 20 20" fill="none" xmlns="http://www.w3.org/2000/svg">
<path d="M18.4701 -1.27571e-05H1.53006C1.33964 -0.00265738 1.15056 0.0322347 0.973624 0.102671C0.796689 0.173107 0.635362 0.277708 0.498856 0.410499C0.36235 0.543291 0.25334 0.701672 0.178051 0.876597C0.102761 1.05152 0.062667 1.23957 0.0600586 1.42999V18.57C0.062667 18.7604 0.102761 18.9485 0.178051 19.1234C0.25334 19.2983 0.36235 19.4567 0.498856 19.5895C0.635362 19.7223 0.796689 19.8269 0.973624 19.8973C1.15056 19.9677 1.33964 20.0026 1.53006 20H18.4701C18.6605 20.0026 18.8496 19.9677 19.0265 19.8973C19.2034 19.8269 19.3648 19.7223 19.5013 19.5895C19.6378 19.4567 19.7468 19.2983 19.8221 19.1234C19.8974 18.9485 19.9375 18.7604 19.9401 18.57V1.42999C19.9375 1.23957 19.8974 1.05152 19.8221 0.876597C19.7468 0.701672 19.6378 0.543291 19.5013 0.410499C19.3648 0.277708 19.2034 0.173107 19.0265 0.102671C18.8496 0.0322347 18.6605 -0.00265738 18.4701 -1.27571e-05ZM6.09006 16.74H3.09006V7.73999H6.09006V16.74ZM4.59006 6.47999C4.17632 6.47999 3.77953 6.31563 3.48697 6.02307C3.19442 5.73052 3.03006 5.33372 3.03006 4.91999C3.03006 4.50625 3.19442 4.10946 3.48697 3.8169C3.77953 3.52434 4.17632 3.35999 4.59006 3.35999C4.80975 3.33507 5.03224 3.35684 5.24293 3.42387C5.45363 3.4909 5.6478 3.60168 5.81272 3.74895C5.97763 3.89622 6.10958 4.07667 6.19993 4.27847C6.29028 4.48027 6.33698 4.69888 6.33698 4.91999C6.33698 5.14109 6.29028 5.3597 6.19993 5.5615C6.10958 5.76331 5.97763 5.94375 5.81272 6.09103C5.6478 6.2383 5.45363 6.34907 5.24293 6.4161C5.03224 6.48313 4.80975 6.5049 4.59006 6.47999ZM16.9101 16.74H13.9101V11.91C13.9101 10.7 13.4801 9.90999 12.3901 9.90999C12.0527 9.91246 11.7242 10.0183 11.4489 10.2132C11.1735 10.4081 10.9645 10.6827 10.8501 11C10.7718 11.235 10.7379 11.4826 10.7501 11.73V16.73H7.75006C7.75006 16.73 7.75006 8.54999 7.75006 7.72999H10.7501V8.99999C11.0226 8.52709 11.419 8.13751 11.8965 7.87319C12.374 7.60887 12.9146 7.47984 13.4601 7.49999C15.4601 7.49999 16.9101 8.78999 16.9101 11.56V16.74Z" fill="#4A71FB"/>
</svg>
